<svg id="visual" viewBox="0 0 900 600" width="900" height="600" xmlns="http://www.w3.org/2000/svg" xmlns:xlink="http://www.w3.org/1999/xlink" version="1.1"><path d="M0 181L82 181L82 223L164 223L164 97L245 97L245 151L327 151L327 217L409 217L409 217L491 217L491 133L573 133L573 241L655 241L655 163L736 163L736 169L818 169L818 109L900 109L900 193L900 0L900 0L818 0L818 0L736 0L736 0L655 0L655 0L573 0L573 0L491 0L491 0L409 0L409 0L327 0L327 0L245 0L245 0L164 0L164 0L82 0L82 0L0 0Z" fill="#474a8a"></path><path d="M0 277L82 277L82 397L164 397L164 325L245 325L245 373L327 373L327 301L409 301L409 331L491 331L491 319L573 319L573 337L655 337L655 319L736 319L736 331L818 331L818 307L900 307L900 355L900 191L900 107L818 107L818 167L736 167L736 161L655 161L655 239L573 239L573 131L491 131L491 215L409 215L409 215L327 215L327 149L245 149L245 95L164 95L164 221L82 221L82 179L0 179Z" fill="#535694"></path><path d="M0 367L82 367L82 463L164 463L164 385L245 385L245 469L327 469L327 409L409 409L409 427L491 427L491 361L573 361L573 451L655 451L655 379L736 379L736 433L818 433L818 379L900 379L900 439L900 353L900 305L818 305L818 329L736 329L736 317L655 317L655 335L573 335L573 317L491 317L491 329L409 329L409 299L327 299L327 371L245 371L245 323L164 323L164 395L82 395L82 275L0 275Z" fill="#5f639f"></path><path d="M0 505L82 505L82 553L164 553L164 559L245 559L245 565L327 565L327 541L409 541L409 523L491 523L491 499L573 499L573 505L655 505L655 529L736 529L736 541L818 541L818 505L900 505L900 541L900 437L900 377L818 377L818 431L736 431L736 377L655 377L655 449L573 449L573 359L491 359L491 425L409 425L409 407L327 407L327 467L245 467L245 383L164 383L164 461L82 461L82 365L0 365Z" fill="#6b6faa"></path><path d="M0 601L82 601L82 601L164 601L164 601L245 601L245 601L327 601L327 601L409 601L409 601L491 601L491 601L573 601L573 601L655 601L655 601L736 601L736 601L818 601L818 601L900 601L900 601L900 539L900 503L818 503L818 539L736 539L736 527L655 527L655 503L573 503L573 497L491 497L491 521L409 521L409 539L327 539L327 563L245 563L245 557L164 557L164 551L82 551L82 503L0 503Z" fill="#787cb5"></path></svg>